<mxfile host="Electron" agent="Mozilla/5.0 (Windows NT 10.0; Win64; x64) AppleWebKit/537.36 (KHTML, like Gecko) draw.io/27.0.2 Chrome/134.0.6998.205 Electron/35.3.0 Safari/537.36" version="27.0.2">
  <diagram name="PÃ¡gina-1" id="QCLR3uHfYd-4rFstNeCy">
    <mxGraphModel dx="1633" dy="2109" grid="1" gridSize="10" guides="1" tooltips="1" connect="1" arrows="1" fold="1" page="1" pageScale="1" pageWidth="827" pageHeight="1169" math="0" shadow="0">
      <root>
        <mxCell id="0" />
        <mxCell id="1" parent="0" />
        <mxCell id="9TUCK8Fl6qZcFN1JhtRJ-1" value="CLIENTE" style="rounded=0;whiteSpace=wrap;html=1;" parent="1" vertex="1">
          <mxGeometry x="100" y="130" width="120" height="60" as="geometry" />
        </mxCell>
        <mxCell id="9TUCK8Fl6qZcFN1JhtRJ-6" style="edgeStyle=orthogonalEdgeStyle;rounded=0;orthogonalLoop=1;jettySize=auto;html=1;entryX=1;entryY=0.5;entryDx=0;entryDy=0;" parent="1" source="9TUCK8Fl6qZcFN1JhtRJ-5" target="9TUCK8Fl6qZcFN1JhtRJ-1" edge="1">
          <mxGeometry relative="1" as="geometry" />
        </mxCell>
        <mxCell id="9TUCK8Fl6qZcFN1JhtRJ-8" style="edgeStyle=orthogonalEdgeStyle;rounded=0;orthogonalLoop=1;jettySize=auto;html=1;" parent="1" source="9TUCK8Fl6qZcFN1JhtRJ-5" target="9TUCK8Fl6qZcFN1JhtRJ-7" edge="1">
          <mxGeometry relative="1" as="geometry" />
        </mxCell>
        <mxCell id="9TUCK8Fl6qZcFN1JhtRJ-5" value="HACE" style="rhombus;whiteSpace=wrap;html=1;" parent="1" vertex="1">
          <mxGeometry x="300" y="120" width="80" height="80" as="geometry" />
        </mxCell>
        <mxCell id="9TUCK8Fl6qZcFN1JhtRJ-7" value="Pedido" style="rounded=0;whiteSpace=wrap;html=1;" parent="1" vertex="1">
          <mxGeometry x="450" y="130" width="120" height="60" as="geometry" />
        </mxCell>
        <mxCell id="9TUCK8Fl6qZcFN1JhtRJ-9" value="1:N" style="text;html=1;align=center;verticalAlign=middle;resizable=0;points=[];autosize=1;strokeColor=none;fillColor=none;" parent="1" vertex="1">
          <mxGeometry x="320" y="160" width="40" height="30" as="geometry" />
        </mxCell>
        <mxCell id="9TUCK8Fl6qZcFN1JhtRJ-10" value="EMPLEADO" style="rounded=0;whiteSpace=wrap;html=1;" parent="1" vertex="1">
          <mxGeometry x="100" y="20" width="120" height="60" as="geometry" />
        </mxCell>
        <mxCell id="9TUCK8Fl6qZcFN1JhtRJ-30" style="edgeStyle=orthogonalEdgeStyle;rounded=0;orthogonalLoop=1;jettySize=auto;html=1;entryX=1;entryY=0.5;entryDx=0;entryDy=0;" parent="1" source="9TUCK8Fl6qZcFN1JhtRJ-11" target="9TUCK8Fl6qZcFN1JhtRJ-10" edge="1">
          <mxGeometry relative="1" as="geometry" />
        </mxCell>
        <mxCell id="9TUCK8Fl6qZcFN1JhtRJ-31" style="edgeStyle=orthogonalEdgeStyle;rounded=0;orthogonalLoop=1;jettySize=auto;html=1;entryX=0.5;entryY=0;entryDx=0;entryDy=0;" parent="1" source="9TUCK8Fl6qZcFN1JhtRJ-11" target="9TUCK8Fl6qZcFN1JhtRJ-7" edge="1">
          <mxGeometry relative="1" as="geometry" />
        </mxCell>
        <mxCell id="9TUCK8Fl6qZcFN1JhtRJ-11" value="GESTIONA" style="rhombus;whiteSpace=wrap;html=1;" parent="1" vertex="1">
          <mxGeometry x="300" y="10" width="80" height="80" as="geometry" />
        </mxCell>
        <mxCell id="9TUCK8Fl6qZcFN1JhtRJ-16" value="1:N" style="text;html=1;align=center;verticalAlign=middle;resizable=0;points=[];autosize=1;strokeColor=none;fillColor=none;" parent="1" vertex="1">
          <mxGeometry x="320" y="50" width="40" height="30" as="geometry" />
        </mxCell>
        <mxCell id="CIaCIXDbEJzTGDQdLWJQ-27" style="edgeStyle=orthogonalEdgeStyle;rounded=0;orthogonalLoop=1;jettySize=auto;html=1;entryX=1;entryY=0.5;entryDx=0;entryDy=0;" edge="1" parent="1" source="9TUCK8Fl6qZcFN1JhtRJ-17" target="CIaCIXDbEJzTGDQdLWJQ-24">
          <mxGeometry relative="1" as="geometry" />
        </mxCell>
        <mxCell id="CIaCIXDbEJzTGDQdLWJQ-28" style="edgeStyle=orthogonalEdgeStyle;rounded=0;orthogonalLoop=1;jettySize=auto;html=1;entryX=0.5;entryY=0;entryDx=0;entryDy=0;" edge="1" parent="1" source="9TUCK8Fl6qZcFN1JhtRJ-17" target="CIaCIXDbEJzTGDQdLWJQ-5">
          <mxGeometry relative="1" as="geometry" />
        </mxCell>
        <mxCell id="9TUCK8Fl6qZcFN1JhtRJ-17" value="CONTIENE" style="rhombus;whiteSpace=wrap;html=1;" parent="1" vertex="1">
          <mxGeometry x="920" y="120" width="80" height="80" as="geometry" />
        </mxCell>
        <mxCell id="9TUCK8Fl6qZcFN1JhtRJ-21" value="1:N" style="text;html=1;align=center;verticalAlign=middle;resizable=0;points=[];autosize=1;strokeColor=none;fillColor=none;" parent="1" vertex="1">
          <mxGeometry x="940" y="160" width="40" height="30" as="geometry" />
        </mxCell>
        <mxCell id="9TUCK8Fl6qZcFN1JhtRJ-24" value="" style="edgeStyle=orthogonalEdgeStyle;rounded=0;orthogonalLoop=1;jettySize=auto;html=1;entryX=0;entryY=0.5;entryDx=0;entryDy=0;" parent="1" source="9TUCK8Fl6qZcFN1JhtRJ-23" target="CIaCIXDbEJzTGDQdLWJQ-5" edge="1">
          <mxGeometry relative="1" as="geometry">
            <mxPoint x="900" y="290" as="targetPoint" />
          </mxGeometry>
        </mxCell>
        <mxCell id="CIaCIXDbEJzTGDQdLWJQ-4" style="edgeStyle=orthogonalEdgeStyle;rounded=0;orthogonalLoop=1;jettySize=auto;html=1;entryX=1;entryY=0.5;entryDx=0;entryDy=0;" edge="1" parent="1" source="9TUCK8Fl6qZcFN1JhtRJ-23" target="CIaCIXDbEJzTGDQdLWJQ-3">
          <mxGeometry relative="1" as="geometry" />
        </mxCell>
        <mxCell id="9TUCK8Fl6qZcFN1JhtRJ-23" value="APARECEN" style="rhombus;whiteSpace=wrap;html=1;" parent="1" vertex="1">
          <mxGeometry x="760" y="250" width="80" height="80" as="geometry" />
        </mxCell>
        <mxCell id="9TUCK8Fl6qZcFN1JhtRJ-27" value="1:N" style="text;html=1;align=center;verticalAlign=middle;resizable=0;points=[];autosize=1;strokeColor=none;fillColor=none;" parent="1" vertex="1">
          <mxGeometry x="780" y="290" width="40" height="30" as="geometry" />
        </mxCell>
        <mxCell id="9TUCK8Fl6qZcFN1JhtRJ-33" style="edgeStyle=orthogonalEdgeStyle;rounded=0;orthogonalLoop=1;jettySize=auto;html=1;entryX=0.5;entryY=0;entryDx=0;entryDy=0;" parent="1" source="9TUCK8Fl6qZcFN1JhtRJ-29" target="9TUCK8Fl6qZcFN1JhtRJ-10" edge="1">
          <mxGeometry relative="1" as="geometry" />
        </mxCell>
        <mxCell id="9TUCK8Fl6qZcFN1JhtRJ-35" style="edgeStyle=orthogonalEdgeStyle;rounded=0;orthogonalLoop=1;jettySize=auto;html=1;entryX=0;entryY=0.5;entryDx=0;entryDy=0;" parent="1" source="9TUCK8Fl6qZcFN1JhtRJ-29" target="9TUCK8Fl6qZcFN1JhtRJ-34" edge="1">
          <mxGeometry relative="1" as="geometry" />
        </mxCell>
        <mxCell id="9TUCK8Fl6qZcFN1JhtRJ-29" value="CONDUCE" style="rhombus;whiteSpace=wrap;html=1;" parent="1" vertex="1">
          <mxGeometry x="280" y="-130" width="80" height="80" as="geometry" />
        </mxCell>
        <mxCell id="9TUCK8Fl6qZcFN1JhtRJ-32" value="1:N" style="text;html=1;align=center;verticalAlign=middle;resizable=0;points=[];autosize=1;strokeColor=none;fillColor=none;" parent="1" vertex="1">
          <mxGeometry x="300" y="-90" width="40" height="30" as="geometry" />
        </mxCell>
        <mxCell id="9TUCK8Fl6qZcFN1JhtRJ-34" value="VEHICULO" style="rounded=0;whiteSpace=wrap;html=1;" parent="1" vertex="1">
          <mxGeometry x="520" y="-120" width="120" height="60" as="geometry" />
        </mxCell>
        <mxCell id="9TUCK8Fl6qZcFN1JhtRJ-37" style="edgeStyle=orthogonalEdgeStyle;rounded=0;orthogonalLoop=1;jettySize=auto;html=1;entryX=0.5;entryY=1;entryDx=0;entryDy=0;" parent="1" source="9TUCK8Fl6qZcFN1JhtRJ-36" target="9TUCK8Fl6qZcFN1JhtRJ-34" edge="1">
          <mxGeometry relative="1" as="geometry" />
        </mxCell>
        <mxCell id="9TUCK8Fl6qZcFN1JhtRJ-38" style="edgeStyle=orthogonalEdgeStyle;rounded=0;orthogonalLoop=1;jettySize=auto;html=1;entryX=0.75;entryY=0;entryDx=0;entryDy=0;" parent="1" source="9TUCK8Fl6qZcFN1JhtRJ-36" target="9TUCK8Fl6qZcFN1JhtRJ-7" edge="1">
          <mxGeometry relative="1" as="geometry" />
        </mxCell>
        <mxCell id="9TUCK8Fl6qZcFN1JhtRJ-36" value="ESTA ASOCIADO" style="rhombus;whiteSpace=wrap;html=1;" parent="1" vertex="1">
          <mxGeometry x="540" y="-20" width="80" height="80" as="geometry" />
        </mxCell>
        <mxCell id="9TUCK8Fl6qZcFN1JhtRJ-39" value="1:N" style="text;html=1;align=center;verticalAlign=middle;resizable=0;points=[];autosize=1;strokeColor=none;fillColor=none;" parent="1" vertex="1">
          <mxGeometry x="560" y="30" width="40" height="30" as="geometry" />
        </mxCell>
        <mxCell id="CIaCIXDbEJzTGDQdLWJQ-3" value="PRODUCTOS" style="rounded=0;whiteSpace=wrap;html=1;" vertex="1" parent="1">
          <mxGeometry x="554" y="260" width="120" height="60" as="geometry" />
        </mxCell>
        <mxCell id="CIaCIXDbEJzTGDQdLWJQ-5" value="ItemProductos" style="rounded=0;whiteSpace=wrap;html=1;" vertex="1" parent="1">
          <mxGeometry x="900" y="260" width="120" height="60" as="geometry" />
        </mxCell>
        <mxCell id="CIaCIXDbEJzTGDQdLWJQ-12" style="edgeStyle=orthogonalEdgeStyle;rounded=0;orthogonalLoop=1;jettySize=auto;html=1;entryX=0;entryY=0.5;entryDx=0;entryDy=0;" edge="1" parent="1" source="CIaCIXDbEJzTGDQdLWJQ-9" target="9TUCK8Fl6qZcFN1JhtRJ-1">
          <mxGeometry relative="1" as="geometry" />
        </mxCell>
        <mxCell id="CIaCIXDbEJzTGDQdLWJQ-13" style="edgeStyle=orthogonalEdgeStyle;rounded=0;orthogonalLoop=1;jettySize=auto;html=1;entryX=0;entryY=0.5;entryDx=0;entryDy=0;" edge="1" parent="1" source="CIaCIXDbEJzTGDQdLWJQ-9" target="9TUCK8Fl6qZcFN1JhtRJ-10">
          <mxGeometry relative="1" as="geometry" />
        </mxCell>
        <mxCell id="CIaCIXDbEJzTGDQdLWJQ-20" style="edgeStyle=orthogonalEdgeStyle;rounded=0;orthogonalLoop=1;jettySize=auto;html=1;entryX=1;entryY=0.5;entryDx=0;entryDy=0;" edge="1" parent="1" source="CIaCIXDbEJzTGDQdLWJQ-9" target="CIaCIXDbEJzTGDQdLWJQ-10">
          <mxGeometry relative="1" as="geometry" />
        </mxCell>
        <mxCell id="CIaCIXDbEJzTGDQdLWJQ-9" value="INICIA A&amp;nbsp;" style="rhombus;whiteSpace=wrap;html=1;" vertex="1" parent="1">
          <mxGeometry x="-70" y="70" width="80" height="80" as="geometry" />
        </mxCell>
        <mxCell id="CIaCIXDbEJzTGDQdLWJQ-10" value="&lt;span style=&quot;white-space: pre;&quot;&gt;&#x9;&lt;/span&gt;SESIÃN" style="rounded=0;whiteSpace=wrap;html=1;" vertex="1" parent="1">
          <mxGeometry x="-270" y="80" width="120" height="60" as="geometry" />
        </mxCell>
        <mxCell id="CIaCIXDbEJzTGDQdLWJQ-14" value="1,1" style="text;html=1;align=center;verticalAlign=middle;resizable=0;points=[];autosize=1;strokeColor=none;fillColor=none;" vertex="1" parent="1">
          <mxGeometry x="-50" y="110" width="40" height="30" as="geometry" />
        </mxCell>
        <mxCell id="CIaCIXDbEJzTGDQdLWJQ-15" value="REGULARIZACIÃN" style="rounded=0;whiteSpace=wrap;html=1;" vertex="1" parent="1">
          <mxGeometry x="280" y="260" width="120" height="60" as="geometry" />
        </mxCell>
        <mxCell id="CIaCIXDbEJzTGDQdLWJQ-17" style="edgeStyle=orthogonalEdgeStyle;rounded=0;orthogonalLoop=1;jettySize=auto;html=1;entryX=1;entryY=0.5;entryDx=0;entryDy=0;" edge="1" parent="1" source="CIaCIXDbEJzTGDQdLWJQ-16" target="CIaCIXDbEJzTGDQdLWJQ-15">
          <mxGeometry relative="1" as="geometry" />
        </mxCell>
        <mxCell id="CIaCIXDbEJzTGDQdLWJQ-18" style="edgeStyle=orthogonalEdgeStyle;rounded=0;orthogonalLoop=1;jettySize=auto;html=1;entryX=0;entryY=0.5;entryDx=0;entryDy=0;" edge="1" parent="1" source="CIaCIXDbEJzTGDQdLWJQ-16" target="CIaCIXDbEJzTGDQdLWJQ-3">
          <mxGeometry relative="1" as="geometry" />
        </mxCell>
        <mxCell id="CIaCIXDbEJzTGDQdLWJQ-16" value="ESTA EN" style="rhombus;whiteSpace=wrap;html=1;" vertex="1" parent="1">
          <mxGeometry x="440" y="250" width="80" height="80" as="geometry" />
        </mxCell>
        <mxCell id="CIaCIXDbEJzTGDQdLWJQ-19" value="1:N" style="text;html=1;align=center;verticalAlign=middle;resizable=0;points=[];autosize=1;strokeColor=none;fillColor=none;" vertex="1" parent="1">
          <mxGeometry x="460" y="290" width="40" height="30" as="geometry" />
        </mxCell>
        <mxCell id="CIaCIXDbEJzTGDQdLWJQ-23" style="edgeStyle=orthogonalEdgeStyle;rounded=0;orthogonalLoop=1;jettySize=auto;html=1;entryX=1;entryY=0.5;entryDx=0;entryDy=0;" edge="1" parent="1" source="CIaCIXDbEJzTGDQdLWJQ-22" target="9TUCK8Fl6qZcFN1JhtRJ-7">
          <mxGeometry relative="1" as="geometry" />
        </mxCell>
        <mxCell id="CIaCIXDbEJzTGDQdLWJQ-25" style="edgeStyle=orthogonalEdgeStyle;rounded=0;orthogonalLoop=1;jettySize=auto;html=1;entryX=0;entryY=0.5;entryDx=0;entryDy=0;" edge="1" parent="1" source="CIaCIXDbEJzTGDQdLWJQ-22" target="CIaCIXDbEJzTGDQdLWJQ-24">
          <mxGeometry relative="1" as="geometry" />
        </mxCell>
        <mxCell id="CIaCIXDbEJzTGDQdLWJQ-22" value="PASA A" style="rhombus;whiteSpace=wrap;html=1;" vertex="1" parent="1">
          <mxGeometry x="650" y="120" width="80" height="80" as="geometry" />
        </mxCell>
        <mxCell id="CIaCIXDbEJzTGDQdLWJQ-24" value="PEDIDOLOG" style="rounded=0;whiteSpace=wrap;html=1;" vertex="1" parent="1">
          <mxGeometry x="780" y="130" width="120" height="60" as="geometry" />
        </mxCell>
      </root>
    </mxGraphModel>
  </diagram>
</mxfile>
